<?xml version="1.0" encoding="UTF-8"?>
<svg id="Layer_2" data-name="Layer 2" xmlns="http://www.w3.org/2000/svg" viewBox="0 0 140.23 66.44">
  <g id="Layer_1-2" data-name="Layer 1">
    <path d="m104.48,62.45c-2.31-.02-4.62-.03-6.93-.07-.56,0-1.11-.11-1.67-.18-.55-.07-1.11-.19-1.66-.22-3.37-.16-6.62-1.03-9.93-1.58-.31-.05-.62-.2-.93-.22-2.58-.19-4.96-1.17-7.42-1.82-2.39-.64-4.77-1.3-7.15-1.99-1.92-.56-3.82-1.18-5.72-1.78-.3-.1-.6-.22-.89-.35-.79-.37-1.56-.83-2.38-1.11-.75-.26-1.56-.3-2.34-.49-.73-.18-1.42-.14-2.12.11-.83.29-1.66.59-2.48.9-2.39.92-4.77,1.84-7.15,2.76-.97.38-1.97.7-2.87,1.2-.85.48-1.75.79-2.67,1.02-2.09.54-4.13,1.24-6.12,2.07-1.33.56-2.71.93-4.09,1.35-2.36.73-4.71,1.52-7.06,2.29-.3.1-.61.19-.92.26-2.41.53-4.79,1.27-7.28,1.37-2.2.55-4.46.13-6.67.47-2.16-.2-4.28-.54-6.14-1.8-.61-.41-1.08-.93-1.44-1.58-.68-1.25-.6-2.44.18-3.62.67-1.01,1.46-1.91,2.37-2.69,2-1.72,3.97-3.46,6.19-4.9,1-.65,2.04-1.24,3.07-1.85.96-.57,1.94-1.11,2.9-1.68,1.66-.98,3.41-1.69,5.28-2.2,2.7-.74,5.42-1.37,8.21-1.68,4.3-.49,8.6-.62,12.86.36.62.14,1.25.27,1.88.39,1.73.33,3.43.73,5.09,1.32,2.26.8,4.61,1.3,6.84,2.2.62.25,1.24.24,1.87.02,2.03-.72,4.08-1.39,6.1-2.16,3.51-1.34,7.01-2.7,10.48-4.12,5.84-2.4,11.6-4.95,17.08-8.14,2.35-1.37,4.66-2.79,6.88-4.35.32-.23.63-.49.91-.76.08-.08.05-.28.03-.42,0-.05-.13-.12-.19-.11-.71.08-1.42.17-2.13.27-4.11.61-8.21,1.21-12.27,2.09-2.1.46-4.24.77-6.36,1.16-.31.06-.63.11-.94.19-2.77.79-5.61,1.24-8.42,1.83-.7.15-1.42.27-2.09.53-.98.38-1.99.61-3.01.78-2.05.34-4,1.08-6.06,1.41-.23.04-.47.11-.69.2-3.3,1.3-6.81,1.68-10.26,2.32-1.18.22-2.38.1-3.55-.28-1.97-.64-3.18-2.17-3.28-4.25-.03-.68.21-1.28.77-1.66.59-.4,1.2-.79,1.85-1.1,1.73-.82,3.47-1.64,5.24-2.37,2.89-1.18,5.7-2.51,8.48-3.92,1.5-.76,3.01-1.48,4.47-2.3,2.09-1.18,4.15-2.39,6.18-3.68,2.03-1.29,3.91-2.78,5.47-4.63.15-.18.34-.34.54-.47.28-.18.6-.21.92-.11.55.18.97.54,1.3,1.01.36.51.36,1.36-.03,1.8-1.43,1.62-2.95,3.17-4.8,4.31-1.35.83-2.62,1.83-4.18,2.3-2.1,1.15-4.3,2.1-6.39,3.28-1.11.63-2.31,1.07-3.47,1.62-2.31,1.09-4.61,2.2-6.92,3.3-.29.14-.6.25-.86.43-1.05.74-2.18,1.32-3.34,1.87-.2.09-.33.33-.48.51-.13.16.04.54.23.58,1.04.22,2.07.06,3.09-.09,1.03-.15,2.04-.37,3.06-.58,2.9-.58,5.8-1.16,8.69-1.75,1.25-.26,2.49-.58,3.74-.85,3.27-.73,6.55-1.45,9.82-2.17.39-.09.78-.17,1.17-.24,4.95-.89,9.9-1.78,14.85-2.66,3.14-.56,6.29-1.11,9.43-1.68,1.18-.22,2.35-.45,3.45-.97.57-.27,1.07-.14,1.56.23,1.58,1.21,1.79,2.19.8,3.91-.98,1.71-2.43,2.95-4.03,4.02-.79.53-1.65.98-2.44,1.51-1.13.76-2.24,1.53-3.54,1.98-.37.13-.69.39-1.04.59-1.17.68-2.34,1.37-3.52,2.05-.28.16-.56.35-.86.4-1.22.18-2.25.76-3.29,1.37-.62.36-1.29.62-1.96.9-2.21.91-4.36,1.96-6.64,2.73-2.26.76-4.44,1.79-6.65,2.7-.52.21-1.03.46-1.57.59-1.87.46-3.6,1.31-5.41,1.94-.23.08-.44.19-.66.29-.44.21-.77.65-.69.89.11.34.39.49.69.6,1.2.45,2.39.9,3.6,1.32,3.32,1.16,6.65,2.29,10.06,3.15,2.63.67,5.3,1.2,7.95,1.77,1.25.27,2.51.51,3.76.73,1.1.19,2.21.34,3.31.5.47.07.96.08,1.43.15,4.68.66,9.39.74,14.1.53.48-.02.96-.05,1.44-.04,1.76.02,3.51,0,5.26-.24.39-.06.8-.07,1.2-.06,2.96.1,5.89-.4,8.83-.54,2.31-.11,4.6-.55,6.93-.39.55.04,1.12,0,1.67-.09,2.15-.32,4.31-.16,6.46-.09.56.02,1.12.12,1.57.49.1.08.18.27.16.4-.02.13-.13.31-.25.37-.8.4-1.7.48-2.56.51-3.12.09-6.17.8-9.28,1.04-3.58.27-7.14.79-10.73.91-.24,0-.48.04-.72.07-3.66.4-7.33.52-11,.49-.4,0-.8.02-1.2.03,0,.01,0,.03,0,.04Zm-96.72,1.25c1.21-.09,2.16-.17,3.12-.22,4.41-.23,8.7-1.13,12.89-2.5,4.09-1.35,8.16-2.77,12.23-4.19,3.84-1.34,7.62-2.86,11.49-4.14,1.21-.4,2.38-.91,3.48-1.57.2-.12.24-.5.07-.63-.13-.09-.24-.23-.38-.28-1.65-.59-3.29-1.23-5.02-1.55-.86-.16-1.71-.38-2.57-.56-.62-.13-1.25-.3-1.88-.37-1.98-.21-3.97-.38-5.96-.55-.32-.03-.64-.02-.96-.01-3.04.09-6.04.49-9.01,1.16-1.09.24-2.19.42-3.29.6-1.51.25-2.92.78-4.28,1.45-.71.35-1.4.78-2.13,1.08-1.57.63-2.97,1.54-4.34,2.51-2.22,1.56-4.29,3.32-6.42,5-.82.65-1.38,1.54-1.96,2.4-.27.39-.1.99.34,1.24.27.16.55.37.85.43,1.33.27,2.66.5,3.76.7Z"/>
    <path d="m110.7,3.09c-2.95.04-5.91.02-8.86.13-2.55.09-5.1.31-7.65.5-1.67.12-3.34.26-5.01.43-1.03.11-2.06.28-3.08.43-2.37.35-4.76.53-7.1,1.09-.78.18-1.57.29-2.36.4-2.92.42-5.83.95-8.73,1.49-2.35.44-4.72.84-7.06,1.32-4.93,1.02-9.84,2.09-14.69,3.45-3.15.89-6.36,1.58-9.5,2.48-3.15.91-6.37,1.52-9.52,2.41-2.08.59-4.22.88-6.39.91-1.41.02-2.68-.38-3.84-1.16-.77-.52-1.24-1.22-1.32-2.17-.03-.37.37-.85.72-.8.39.05.8.09,1.15.25.98.44,2,.51,3.05.47,1.53-.05,3.02-.29,4.51-.63,3.2-.72,6.37-1.51,9.57-2.21,4.14-.9,8.21-2.07,12.35-2.94,1.02-.21,2.03-.46,3.05-.64,2.68-.45,5.28-1.25,7.96-1.72,1.26-.22,2.52-.44,3.77-.72,3.2-.72,6.45-1.14,9.65-1.83,2.11-.45,4.26-.7,6.39-1.02,2.76-.41,5.53-.81,8.3-1.21.4-.06.79-.12,1.19-.13,1.85,0,3.66-.33,5.47-.64,2.53-.44,5.08-.54,7.63-.62,1.75-.05,3.51-.22,5.26-.32.8-.05,1.6-.13,2.39-.11,3.59.09,7.19.2,10.78.31,2.01.06,3.96.51,5.93.84.31.05.62.16.92.26,1.36.43,2.07,1.43,2.37,2.77.13.6-.07,1.11-.58,1.46-.33.23-.66.46-1.01.65-2.39,1.3-4.78,2.58-7.43,3.3-.92.25-1.8.65-2.7.99-.82.31-1.64.63-2.46.94-1.87.72-3.8,1.24-5.72,1.76-.62.17-1.25.32-1.82.6-2.3,1.12-4.75,1.88-7.08,2.93-.73.33-1.47.63-2.19.96-1.89.86-3.82,1.6-5.76,2.33-.21.08-.49.13-.7.07-.2-.06-.4-.25-.52-.43-.14-.2-.15-.48.04-.67.28-.28.56-.58.9-.77,3.74-2.15,7.54-4.2,11.57-5.78,1.19-.47,2.34-1.03,3.53-1.5,2.45-.97,4.93-1.88,7.37-2.87,2.59-1.04,5.16-2.15,7.74-3.23.14-.06.27-.17.39-.28.05-.05.11-.16.08-.21-.05-.13-.12-.31-.23-.36-.21-.1-.45-.17-.68-.19-1.11-.1-2.23-.2-3.35-.25-1.52-.08-3.03-.14-4.53-.44-.7-.14-1.43-.14-2.14-.2,0,.03,0,.06,0,.09Z"/>
    <path d="m111.61,22.32c.1-.28.16-.51.26-.72.19-.43.84-.67,1.22-.4.32.22.65.48.85.81.34.54.49,1.16.49,1.82,0,.79.02,1.59.08,2.38.06.71.63,1.1,1.37.94.54-.11,1.09-.24,1.61-.44,1.63-.63,3.26-1.27,4.87-1.96,1.25-.53,2.43-1.2,3.45-2.12.18-.16.37-.3.57-.43.39-.27.91-.23,1.34.05.72.48,1.09,1.16,1.15,2,.04.55-.02,1.11-.03,1.67,0,.51.21.93.64,1.22.46.32.94.61,1.39.93.26.18.5.39.72.62.23.24.33.53.23.87-.08.26-.45.48-.75.49-1.08.01-2.03-.34-2.88-.99-.7-.54-1.25-1.22-1.78-1.92-.33-.44-.73-.51-1.27-.29-.29.12-.57.28-.87.4-2.28.94-4.56,1.89-6.84,2.82-.37.15-.76.24-1.13.39-1.24.5-2.39.18-3.23-1.23-.58-.97-.98-1.98-1.01-3.15-.02-.79-.19-1.58-.28-2.37-.06-.47-.1-.95-.15-1.38Z"/>
  </g>
</svg>