<?xml version="1.0" encoding="UTF-8" standalone="no"?>
<!DOCTYPE svg PUBLIC "-//W3C//DTD SVG 1.1//EN" "http://www.w3.org/Graphics/SVG/1.1/DTD/svg11.dtd">
<svg width="100%" height="100%" viewBox="0 0 488 488" version="1.1" xmlns="http://www.w3.org/2000/svg" xmlns:xlink="http://www.w3.org/1999/xlink" xml:space="preserve" xmlns:serif="http://www.serif.com/" style="fill-rule:evenodd;clip-rule:evenodd;stroke-linejoin:round;stroke-miterlimit:2;">
    <g transform="matrix(1,0,0,1,-256,-256)">
        <g transform="matrix(1.2,0,0,1,-100,4.54747e-13)">
            <path d="M337.333,744L378,744L378,703.333L337.333,703.333L337.333,744ZM581.333,744L622,744L622,703.333L581.333,703.333L581.333,744ZM418.667,744L500,744L500,703.333L540.667,703.333L540.667,662.667L500,662.667L500,622L459.333,622L459.333,540.667L378,540.667L378,500L337.333,500L337.333,459.333L296.667,459.333L296.667,540.667L337.333,540.667L337.333,622L378,622L378,581.333L418.667,581.333L418.667,622L378,622L378,662.667L418.667,662.667L418.667,744ZM296.667,662.667L337.333,662.667L337.333,622L296.667,622L296.667,662.667ZM540.667,662.667L581.333,662.667L581.333,622L540.667,622L540.667,662.667ZM540.667,622L540.667,540.667L500,540.667L500,622L540.667,622ZM622,622L622,540.667L581.333,540.667L581.333,622L622,622ZM662.667,581.333L703.333,581.333L703.333,540.667L662.667,540.667L662.667,581.333ZM418.667,459.333L378,459.333L378,500L459.333,500L459.333,540.667L500,540.667L500,459.333L459.333,459.333L459.333,418.667L418.667,418.667L418.667,459.333ZM459.333,296.667L459.333,256L418.667,256L418.667,296.667L378,296.667L378,337.333L418.667,337.333L418.667,378L459.333,378L459.333,337.333L540.667,337.333L540.667,418.667L500,418.667L500,459.333L540.667,459.333L540.667,418.667L581.333,418.667L581.333,459.333L540.667,459.333L540.667,540.667L581.333,540.667L581.333,500L662.667,500L662.667,459.333L622,459.333L622,378L662.667,378L662.667,459.333L703.333,459.333L703.333,337.333L662.667,337.333L662.667,296.667L622,296.667L622,337.333L581.333,337.333L581.333,296.667L540.667,296.667L540.667,256L500,256L500,296.667L459.333,296.667ZM337.333,459.333L378,459.333L378,418.667L337.333,418.667L337.333,459.333ZM459.333,418.667L500,418.667L500,378L459.333,378L459.333,418.667ZM662.667,296.667L703.333,296.667L703.333,256L662.667,256L662.667,296.667ZM337.333,296.667L378,296.667L378,256L337.333,256L337.333,296.667ZM581.333,296.667L622,296.667L622,256L581.333,256L581.333,296.667Z" style="fill:rgb(245,61,61);"/>
        </g>
    </g>
</svg>
