<?xml version="1.0" encoding="UTF-8"?>
<svg id="_ロゴマーク" data-name="ロゴマーク" xmlns="http://www.w3.org/2000/svg" viewBox="0 0 54.43 88.44">
  <defs>
    <style>
      .cls-1 {
        fill: #ff6;
        fill-rule: evenodd;
      }
    </style>
  </defs>
  <path class="cls-1" d="M54.43,81.64h-6.8s0,1.7,0,1.7c2.82,0,5.1,2.28,5.1,5.1h1.7s0-6.8,0-6.8Z"/>
  <path class="cls-1" d="M20.41,81.64h-6.8s0,1.7,0,1.7c2.82,0,5.1,2.28,5.1,5.1h1.7s0-6.8,0-6.8Z"/>
  <path class="cls-1" d="M13.61,81.64h-6.8s0,1.7,0,1.7c2.82,0,5.1,2.28,5.1,5.1h1.7s0-6.8,0-6.8Z"/>
  <path class="cls-1" d="M47.62,74.83h-6.8s0,1.7,0,1.7c2.82,0,5.1,2.28,5.1,5.1h1.7s0-6.8,0-6.8Z"/>
  <path class="cls-1" d="M40.82,74.83h-6.8s0,1.7,0,1.7c2.82,0,5.1,2.28,5.1,5.1h1.7s0-6.8,0-6.8Z"/>
  <path class="cls-1" d="M27.21,74.83h-6.8s0,1.7,0,1.7c2.82,0,5.1,2.28,5.1,5.1h1.7s0-6.8,0-6.8Z"/>
  <path class="cls-1" d="M20.41,74.83h-6.8s0,1.7,0,1.7c2.82,0,5.1,2.28,5.1,5.1h1.7s0-6.8,0-6.8Z"/>
  <path class="cls-1" d="M6.8,74.83H0s0,1.7,0,1.7c2.82,0,5.1,2.28,5.1,5.1h1.7s0-6.8,0-6.8Z"/>
  <path class="cls-1" d="M54.43,68.03h-6.8s0,1.7,0,1.7c2.82,0,5.1,2.28,5.1,5.1h1.7s0-6.8,0-6.8Z"/>
  <path class="cls-1" d="M20.41,68.03h-6.8s0,1.7,0,1.7c2.82,0,5.1,2.28,5.1,5.1h1.7s0-6.8,0-6.8Z"/>
  <path class="cls-1" d="M13.61,68.03h-6.8s0,1.7,0,1.7c2.82,0,5.1,2.28,5.1,5.1h1.7s0-6.8,0-6.8Z"/>
  <path class="cls-1" d="M47.62,61.23h-6.8s0,1.7,0,1.7c2.82,0,5.1,2.28,5.1,5.1h1.7s0-6.8,0-6.8Z"/>
  <path class="cls-1" d="M40.82,61.23h-6.8s0,1.7,0,1.7c2.82,0,5.1,2.28,5.1,5.1h1.7s0-6.8,0-6.8Z"/>
  <path class="cls-1" d="M34.02,61.23h-6.8s0,1.7,0,1.7c2.82,0,5.1,2.28,5.1,5.1h1.7s0-6.8,0-6.8Z"/>
  <path class="cls-1" d="M27.21,61.23h-6.8s0,1.7,0,1.7c2.82,0,5.1,2.28,5.1,5.1h1.7s0-6.8,0-6.8Z"/>
  <path class="cls-1" d="M6.8,61.23H0s0,1.7,0,1.7c2.82,0,5.1,2.28,5.1,5.1h1.7s0-6.8,0-6.8Z"/>
  <path class="cls-1" d="M54.43,54.43h-6.8s0,1.7,0,1.7c2.82,0,5.1,2.28,5.1,5.1h1.7s0-6.8,0-6.8Z"/>
  <path class="cls-1" d="M47.62,54.43h-6.8s0,1.7,0,1.7c2.82,0,5.1,2.28,5.1,5.1h1.7s0-6.8,0-6.8Z"/>
  <path class="cls-1" d="M40.82,54.43h-6.8s0,1.7,0,1.7c2.82,0,5.1,2.28,5.1,5.1h1.7s0-6.8,0-6.8Z"/>
  <path class="cls-1" d="M34.02,54.43h-6.8s0,1.7,0,1.7c2.82,0,5.1,2.28,5.1,5.1h1.7s0-6.8,0-6.8Z"/>
  <path class="cls-1" d="M20.41,54.43h-6.8s0,1.7,0,1.7c2.82,0,5.1,2.28,5.1,5.1h1.7s0-6.8,0-6.8Z"/>
  <path class="cls-1" d="M13.61,54.43h-6.8s0,1.7,0,1.7c2.82,0,5.1,2.28,5.1,5.1h1.7s0-6.8,0-6.8Z"/>
  <path class="cls-1" d="M47.62,47.62h-6.8s0,1.7,0,1.7c2.82,0,5.1,2.28,5.1,5.1h1.7s0-6.8,0-6.8Z"/>
  <path class="cls-1" d="M40.82,47.62h-6.8s0,1.7,0,1.7c2.82,0,5.1,2.28,5.1,5.1h1.7s0-6.8,0-6.8Z"/>
  <path class="cls-1" d="M27.21,47.62h-6.8s0,1.7,0,1.7c2.82,0,5.1,2.28,5.1,5.1h1.7s0-6.8,0-6.8Z"/>
  <path class="cls-1" d="M20.41,47.62h-6.8s0,1.7,0,1.7c2.82,0,5.1,2.28,5.1,5.1h1.7s0-6.8,0-6.8Z"/>
  <path class="cls-1" d="M13.61,47.62h-6.8s0,1.7,0,1.7c2.82,0,5.1,2.28,5.1,5.1h1.7s0-6.8,0-6.8Z"/>
  <path class="cls-1" d="M54.43,40.82h-6.8s0,1.7,0,1.7c2.82,0,5.1,2.28,5.1,5.1h1.7s0-6.8,0-6.8Z"/>
  <path class="cls-1" d="M34.02,40.82h-6.8s0,1.7,0,1.7c2.82,0,5.1,2.28,5.1,5.1h1.7s0-6.8,0-6.8Z"/>
  <path class="cls-1" d="M20.41,40.82h-6.8s0,1.7,0,1.7c2.82,0,5.1,2.28,5.1,5.1h1.7s0-6.8,0-6.8Z"/>
  <path class="cls-1" d="M13.61,40.82h-6.8s0,1.7,0,1.7c2.82,0,5.1,2.28,5.1,5.1h1.7s0-6.8,0-6.8Z"/>
  <path class="cls-1" d="M47.62,34.02h-6.8s0,1.7,0,1.7c2.82,0,5.1,2.28,5.1,5.1h1.7s0-6.8,0-6.8Z"/>
  <path class="cls-1" d="M40.82,34.02h-6.8s0,1.7,0,1.7c2.82,0,5.1,2.28,5.1,5.1h1.7s0-6.8,0-6.8Z"/>
  <path class="cls-1" d="M34.02,34.02h-6.8s0,1.7,0,1.7c2.82,0,5.1,2.28,5.1,5.1h1.7s0-6.8,0-6.8Z"/>
  <path class="cls-1" d="M13.61,34.02h-6.8s0,1.7,0,1.7c2.82,0,5.1,2.28,5.1,5.1h1.7s0-6.8,0-6.8Z"/>
  <path class="cls-1" d="M54.43,27.21h-6.8s0,1.7,0,1.7c2.82,0,5.1,2.28,5.1,5.1h1.7s0-6.8,0-6.8Z"/>
  <path class="cls-1" d="M40.82,27.21h-6.8s0,1.7,0,1.7c2.82,0,5.1,2.28,5.1,5.1h1.7s0-6.8,0-6.8Z"/>
  <path class="cls-1" d="M27.21,27.21h-6.8s0,1.7,0,1.7c2.82,0,5.1,2.28,5.1,5.1h1.7s0-6.8,0-6.8Z"/>
  <path class="cls-1" d="M20.41,27.21h-6.8s0,1.7,0,1.7c2.82,0,5.1,2.28,5.1,5.1h1.7s0-6.8,0-6.8Z"/>
  <path class="cls-1" d="M13.61,27.21h-6.8s0,1.7,0,1.7c2.82,0,5.1,2.28,5.1,5.1h1.7s0-6.8,0-6.8Z"/>
  <path class="cls-1" d="M47.62,20.41h-6.8s0,1.7,0,1.7c2.82,0,5.1,2.28,5.1,5.1h1.7s0-6.8,0-6.8Z"/>
  <path class="cls-1" d="M40.82,20.41h-6.8s0,1.7,0,1.7c2.82,0,5.1,2.28,5.1,5.1h1.7s0-6.8,0-6.8Z"/>
  <path class="cls-1" d="M34.02,20.41h-6.8s0,1.7,0,1.7c2.82,0,5.1,2.28,5.1,5.1h1.7s0-6.8,0-6.8Z"/>
  <path class="cls-1" d="M13.61,20.41h-6.8s0,1.7,0,1.7c2.82,0,5.1,2.28,5.1,5.1h1.7s0-6.8,0-6.8Z"/>
  <path class="cls-1" d="M6.8,20.41H0s0,1.7,0,1.7c2.82,0,5.1,2.28,5.1,5.1h1.7s0-6.8,0-6.8Z"/>
  <path class="cls-1" d="M40.82,13.61h-6.8s0,1.7,0,1.7c2.82,0,5.1,2.28,5.1,5.1h1.7s0-6.8,0-6.8Z"/>
  <path class="cls-1" d="M27.21,13.61h-6.8s0,1.7,0,1.7c2.82,0,5.1,2.28,5.1,5.1h1.7s0-6.8,0-6.8Z"/>
  <path class="cls-1" d="M20.41,13.61h-6.8s0,1.7,0,1.7c2.82,0,5.1,2.28,5.1,5.1h1.7s0-6.8,0-6.8Z"/>
  <path class="cls-1" d="M13.61,13.61h-6.8s0,1.7,0,1.7c2.82,0,5.1,2.28,5.1,5.1h1.7s0-6.8,0-6.8Z"/>
  <path class="cls-1" d="M47.62,6.8h-6.8s0,1.7,0,1.7c2.82,0,5.1,2.28,5.1,5.1h1.7s0-6.8,0-6.8Z"/>
  <path class="cls-1" d="M40.82,6.8h-6.8s0,1.7,0,1.7c2.82,0,5.1,2.28,5.1,5.1h1.7s0-6.8,0-6.8Z"/>
  <path class="cls-1" d="M6.8,6.8H0s0,1.7,0,1.7c2.82,0,5.1,2.28,5.1,5.1h1.7s0-6.8,0-6.8Z"/>
  <path class="cls-1" d="M54.43,0h-6.8s0,1.7,0,1.7c2.82,0,5.1,2.28,5.1,5.1h1.7s0-6.8,0-6.8Z"/>
  <path class="cls-1" d="M40.82,0h-6.8s0,1.7,0,1.7c2.82,0,5.1,2.28,5.1,5.1h1.7s0-6.8,0-6.8Z"/>
  <path class="cls-1" d="M34.02,0h-6.8s0,1.7,0,1.7c2.82,0,5.1,2.28,5.1,5.1h1.7s0-6.8,0-6.8Z"/>
  <path class="cls-1" d="M20.41,0h-6.8s0,1.7,0,1.7c2.82,0,5.1,2.28,5.1,5.1h1.7s0-6.8,0-6.8Z"/>
  <path class="cls-1" d="M13.61,0h-6.8s0,1.7,0,1.7c2.82,0,5.1,2.28,5.1,5.1h1.7s0-6.8,0-6.8Z"/>
</svg>