<?xml version="1.0" encoding="UTF-8"?>
<svg id="Layer_2" xmlns="http://www.w3.org/2000/svg" viewBox="0 0 147.4 90.71">
  <defs>
    <style>
      .cls-1 {
        fill: #faf063;
        fill-rule: evenodd;
      }
    </style>
  </defs>
  <g id="_ロゴマーク" data-name="ロゴマーク">
    <g>
      <path class="cls-1" d="M147.4,79.37v11.34s-2.83,0-2.83,0c0-4.7-3.81-8.5-8.51-8.5v-2.83h11.34Z"/>
      <path class="cls-1" d="M147.4,22.68v11.34h-2.83c0-4.7-3.81-8.5-8.51-8.5v-2.83s11.34,0,11.34,0Z"/>
      <path class="cls-1" d="M147.4,11.34v11.34s-2.83,0-2.83,0c0-4.7-3.81-8.5-8.51-8.5v-2.83h11.34Z"/>
      <path class="cls-1" d="M136.06,68.03v11.34h-2.83c0-4.7-3.81-8.5-8.51-8.5v-2.83s11.34,0,11.34,0Z"/>
      <path class="cls-1" d="M136.06,56.69v11.34h-2.83c0-4.7-3.81-8.5-8.51-8.5v-2.83s11.34,0,11.34,0Z"/>
      <path class="cls-1" d="M136.06,34.02v11.34h-2.83c0-4.7-3.81-8.5-8.51-8.5v-2.83s11.34,0,11.34,0Z"/>
      <path class="cls-1" d="M136.06,22.68v11.34h-2.83c0-4.7-3.81-8.5-8.51-8.5v-2.83s11.34,0,11.34,0Z"/>
      <path class="cls-1" d="M136.06,0v11.34h-2.83c0-4.7-3.81-8.5-8.51-8.5V0s11.34,0,11.34,0Z"/>
      <path class="cls-1" d="M124.72,79.37v11.34h-2.83c0-4.7-3.81-8.5-8.51-8.5v-2.83s11.34,0,11.34,0Z"/>
      <path class="cls-1" d="M124.72,22.68v11.34h-2.83c0-4.7-3.81-8.5-8.51-8.5v-2.83h11.34Z"/>
      <path class="cls-1" d="M124.72,11.34v11.34h-2.83c0-4.7-3.81-8.5-8.51-8.5v-2.83s11.34,0,11.34,0Z"/>
      <path class="cls-1" d="M113.39,68.03v11.34h-2.83c0-4.7-3.81-8.5-8.51-8.5v-2.83s11.34,0,11.34,0Z"/>
      <path class="cls-1" d="M113.39,56.69v11.34h-2.83c0-4.7-3.81-8.5-8.51-8.5v-2.83s11.34,0,11.34,0Z"/>
      <path class="cls-1" d="M113.39,45.35v11.34h-2.83c0-4.7-3.81-8.5-8.51-8.5v-2.83s11.34,0,11.34,0Z"/>
      <path class="cls-1" d="M113.39,34.02v11.34h-2.83c0-4.7-3.81-8.5-8.51-8.5v-2.83s11.34,0,11.34,0Z"/>
      <path class="cls-1" d="M113.39,0v11.34h-2.83c0-4.7-3.81-8.5-8.51-8.5V0s11.34,0,11.34,0Z"/>
      <path class="cls-1" d="M102.05,79.37v11.34h-2.83c0-4.7-3.81-8.5-8.51-8.5v-2.83h11.34Z"/>
      <path class="cls-1" d="M102.05,68.03v11.34s-2.83,0-2.83,0c0-4.7-3.81-8.5-8.51-8.5v-2.83h11.34Z"/>
      <path class="cls-1" d="M102.05,56.69v11.34h-2.83c0-4.7-3.81-8.5-8.51-8.5v-2.83h11.34Z"/>
      <path class="cls-1" d="M102.05,45.35v11.34s-2.83,0-2.83,0c0-4.7-3.81-8.5-8.51-8.5v-2.83s11.34,0,11.34,0Z"/>
      <path class="cls-1" d="M102.05,22.68v11.34h-2.83c0-4.7-3.81-8.5-8.51-8.5v-2.83h11.34Z"/>
      <path class="cls-1" d="M102.05,11.34v11.34s-2.83,0-2.83,0c0-4.7-3.81-8.5-8.51-8.5v-2.83h11.34Z"/>
      <path class="cls-1" d="M90.71,68.03v11.34h-2.83c0-4.7-3.81-8.5-8.51-8.5v-2.83h11.34Z"/>
      <path class="cls-1" d="M90.71,56.69v11.34s-2.83,0-2.83,0c0-4.7-3.81-8.5-8.51-8.5v-2.83s11.34,0,11.34,0Z"/>
      <path class="cls-1" d="M90.71,34.02v11.34s-2.83,0-2.83,0c0-4.7-3.81-8.5-8.51-8.5v-2.83s11.34,0,11.34,0Z"/>
      <path class="cls-1" d="M90.71,22.68v11.34s-2.83,0-2.83,0c0-4.7-3.81-8.5-8.51-8.5v-2.83h11.34Z"/>
      <path class="cls-1" d="M90.71,11.34v11.34h-2.83c0-4.7-3.81-8.5-8.51-8.5v-2.83h11.34Z"/>
      <path class="cls-1" d="M79.37,79.37v11.34h-2.83c0-4.7-3.81-8.5-8.51-8.5v-2.83h11.34Z"/>
      <path class="cls-1" d="M79.37,45.35v11.34h-2.83c0-4.7-3.81-8.5-8.51-8.5v-2.83h11.34Z"/>
      <path class="cls-1" d="M79.37,22.68v11.34h-2.83c0-4.7-3.81-8.5-8.51-8.5v-2.83h11.34Z"/>
      <path class="cls-1" d="M79.37,11.34v11.34h-2.83c0-4.7-3.81-8.5-8.51-8.5v-2.83h11.34Z"/>
      <path class="cls-1" d="M68.03,68.03v11.34s-2.83,0-2.83,0c0-4.7-3.81-8.5-8.51-8.5v-2.83s11.34,0,11.34,0Z"/>
      <path class="cls-1" d="M68.03,56.69v11.34s-2.83,0-2.83,0c0-4.7-3.81-8.5-8.51-8.5v-2.83s11.34,0,11.34,0Z"/>
      <path class="cls-1" d="M68.03,45.35v11.34h-2.83c0-4.7-3.81-8.5-8.51-8.5v-2.83s11.34,0,11.34,0Z"/>
      <path class="cls-1" d="M68.03,11.34v11.34h-2.83c0-4.7-3.81-8.5-8.51-8.5v-2.83h11.34Z"/>
      <path class="cls-1" d="M56.69,79.37v11.34h-2.83c0-4.7-3.81-8.5-8.51-8.5v-2.83s11.34,0,11.34,0Z"/>
      <path class="cls-1" d="M56.69,56.69v11.34h-2.83c0-4.7-3.81-8.5-8.51-8.5v-2.83s11.34,0,11.34,0Z"/>
      <path class="cls-1" d="M56.69,34.02v11.34h-2.83c0-4.7-3.81-8.5-8.51-8.5v-2.83s11.34,0,11.34,0Z"/>
      <path class="cls-1" d="M56.69,22.68v11.34h-2.83c0-4.7-3.81-8.5-8.51-8.5v-2.83s11.34,0,11.34,0Z"/>
      <path class="cls-1" d="M56.69,11.34v11.34h-2.83c0-4.7-3.81-8.5-8.51-8.5v-2.83h11.34Z"/>
      <path class="cls-1" d="M45.35,68.03v11.34s-2.83,0-2.83,0c0-4.7-3.81-8.5-8.51-8.5v-2.83s11.34,0,11.34,0Z"/>
      <path class="cls-1" d="M45.35,56.69v11.34h-2.83c0-4.7-3.81-8.5-8.51-8.5v-2.83s11.34,0,11.34,0Z"/>
      <path class="cls-1" d="M45.35,45.35v11.34h-2.83c0-4.7-3.81-8.5-8.51-8.5v-2.83s11.34,0,11.34,0Z"/>
      <path class="cls-1" d="M45.35,11.34v11.34s-2.83,0-2.83,0c0-4.7-3.81-8.5-8.51-8.5v-2.83s11.34,0,11.34,0Z"/>
      <path class="cls-1" d="M45.35,0v11.34s-2.83,0-2.83,0c0-4.7-3.81-8.5-8.51-8.5V0s11.34,0,11.34,0Z"/>
      <path class="cls-1" d="M34.02,56.69v11.34h-2.83c0-4.7-3.81-8.5-8.51-8.5v-2.83s11.34,0,11.34,0Z"/>
      <path class="cls-1" d="M34.02,34.02v11.34s-2.83,0-2.83,0c0-4.7-3.81-8.5-8.51-8.5v-2.83h11.34Z"/>
      <path class="cls-1" d="M34.02,22.68v11.34h-2.83c0-4.7-3.81-8.5-8.51-8.5v-2.83s11.34,0,11.34,0Z"/>
      <path class="cls-1" d="M34.02,11.34v11.34h-2.83c0-4.7-3.81-8.5-8.51-8.5v-2.83s11.34,0,11.34,0Z"/>
      <path class="cls-1" d="M22.68,68.03v11.34s-2.83,0-2.83,0c0-4.7-3.81-8.5-8.51-8.5v-2.83s11.34,0,11.34,0Z"/>
      <path class="cls-1" d="M22.68,56.69v11.34s-2.83,0-2.83,0c0-4.7-3.81-8.5-8.51-8.5v-2.83s11.34,0,11.34,0Z"/>
      <path class="cls-1" d="M22.68,0v11.34s-2.83,0-2.83,0c0-4.7-3.81-8.5-8.51-8.5V0s11.34,0,11.34,0Z"/>
      <path class="cls-1" d="M11.34,79.37v11.34h-2.83c0-4.7-3.81-8.5-8.51-8.5v-2.83s11.34,0,11.34,0Z"/>
      <path class="cls-1" d="M11.34,56.69v11.34h-2.83c0-4.7-3.81-8.5-8.51-8.5v-2.83s11.34,0,11.34,0Z"/>
      <path class="cls-1" d="M11.34,45.35v11.34s-2.83,0-2.83,0c0-4.7-3.81-8.5-8.51-8.5v-2.83h11.34Z"/>
      <path class="cls-1" d="M11.34,22.68v11.34s-2.83,0-2.83,0c0-4.7-3.81-8.5-8.51-8.5v-2.83s11.34,0,11.34,0Z"/>
      <path class="cls-1" d="M11.34,11.34v11.34h-2.83c0-4.7-3.81-8.5-8.51-8.5v-2.83s11.34,0,11.34,0Z"/>
    </g>
  </g>
</svg>